ISO-10303-21;
HEADER;
FILE_DESCRIPTION (( 'STEP AP214' ),
    '1' );
FILE_NAME ('Áã¼þ2.STEP',
    '2026-01-25T05:35:10',
    ( '123' ),
    ( '' ),
    'SwSTEP 2.0',
    'SolidWorks 2024',
    '' );
FILE_SCHEMA (( 'AUTOMOTIVE_DESIGN' ));
ENDSEC;

DATA;
#1 = ORIENTED_EDGE ( 'NONE', *, *, #313, .F. ) ;
#2 = AXIS2_PLACEMENT_3D ( 'NONE', #14, #222, #285 ) ;
#3 = VECTOR ( 'NONE', #389, 1000.000000000000000 ) ;
#4 = DIRECTION ( 'NONE',  ( 0.000000000000000000, -0.000000000000000000, 1.000000000000000000 ) ) ;
#5 = ORIENTED_EDGE ( 'NONE', *, *, #390, .F. ) ;
#6 = CARTESIAN_POINT ( 'NONE',  ( 3.500000000000000000, 0.7999999999999998224, 1.800000000000000044 ) ) ;
#7 = CARTESIAN_POINT ( 'NONE',  ( 3.500000000000000000, 0.000000000000000000, 9.799999999999998934 ) ) ;
#8 = ORIENTED_EDGE ( 'NONE', *, *, #110, .T. ) ;
#9 = AXIS2_PLACEMENT_3D ( 'NONE', #187, #217, #283 ) ;
#10 = CARTESIAN_POINT ( 'NONE',  ( 3.500000000000000000, -0.8000000000000010436, 9.799999999999998934 ) ) ;
#11 = VECTOR ( 'NONE', #323, 1000.000000000000000 ) ;
#12 = PLANE ( 'NONE',  #141 ) ;
#13 = ORIENTED_EDGE ( 'NONE', *, *, #157, .F. ) ;
#14 = CARTESIAN_POINT ( 'NONE',  ( 3.500000000000000000, 0.000000000000000000, 0.000000000000000000 ) ) ;
#15 = ORIENTED_EDGE ( 'NONE', *, *, #57, .F. ) ;
#16 = VECTOR ( 'NONE', #194, 1000.000000000000000 ) ;
#17 = DIRECTION ( 'NONE',  ( 0.000000000000000000, 0.000000000000000000, -1.000000000000000000 ) ) ;
#18 = CARTESIAN_POINT ( 'NONE',  ( 3.500000000000000000, 0.7999999999999990452, 6.200000000000001066 ) ) ;
#19 = CARTESIAN_POINT ( 'NONE',  ( 3.500000000000000000, -0.8000000000000010436, 0.000000000000000000 ) ) ;
#20 = ORIENTED_EDGE ( 'NONE', *, *, #434, .T. ) ;
#21 =( NAMED_UNIT ( * ) PLANE_ANGLE_UNIT ( ) SI_UNIT ( $, .RADIAN. ) );
#22 = VECTOR ( 'NONE', #246, 1000.000000000000000 ) ;
#23 =( LENGTH_UNIT ( ) NAMED_UNIT ( * ) SI_UNIT ( .MILLI., .METRE. ) );
#24 =( NAMED_UNIT ( * ) SI_UNIT ( $, .STERADIAN. ) SOLID_ANGLE_UNIT ( ) );
#25 = ADVANCED_FACE ( 'NONE', ( #90 ), #289, .F. ) ;
#26 = SURFACE_STYLE_FILL_AREA ( #163 ) ;
#27 = DIRECTION ( 'NONE',  ( 0.000000000000000000, 0.000000000000000000, 1.000000000000000000 ) ) ;
#28 = VECTOR ( 'NONE', #301, 1000.000000000000000 ) ;
#29 = PRODUCT_DEFINITION ( 'æœ', '', #212, #329 ) ;
#30 = CARTESIAN_POINT ( 'NONE',  ( 3.500000000000000000, 0.000000000000000000, -1.800000000000000044 ) ) ;
#31 = VERTEX_POINT ( 'NONE', #18 ) ;
#32 = DIRECTION ( 'NONE',  ( -1.000000000000000000, -0.000000000000000000, -0.000000000000000000 ) ) ;
#33 = DIRECTION ( 'NONE',  ( 0.000000000000000000, 0.000000000000000000, 1.000000000000000000 ) ) ;
#34 = ORIENTED_EDGE ( 'NONE', *, *, #293, .F. ) ;
#35 = PLANE ( 'NONE',  #338 ) ;
#36 = ORIENTED_EDGE ( 'NONE', *, *, #255, .F. ) ;
#37 = DIRECTION ( 'NONE',  ( -1.000000000000000000, -0.000000000000000000, -0.000000000000000000 ) ) ;
#38 = VERTEX_POINT ( 'NONE', #433 ) ;
#39 = DIRECTION ( 'NONE',  ( 1.000000000000000000, 0.000000000000000000, -0.000000000000000000 ) ) ;
#40 = DIRECTION ( 'NONE',  ( 0.000000000000000000, 0.000000000000000000, -1.000000000000000000 ) ) ;
#41 = ADVANCED_FACE ( 'NONE', ( #393 ), #334, .T. ) ;
#42 = LINE ( 'NONE', #358, #220 ) ;
#43 = ORIENTED_EDGE ( 'NONE', *, *, #140, .T. ) ;
#44 = LINE ( 'NONE', #364, #381 ) ;
#45 = CARTESIAN_POINT ( 'NONE',  ( 3.500000000000000000, 0.7999999999999988232, 9.799999999999998934 ) ) ;
#46 = ORIENTED_EDGE ( 'NONE', *, *, #205, .F. ) ;
#47 = CARTESIAN_POINT ( 'NONE',  ( 3.500000000000000000, 0.8000000000000000444, 9.637352644315595243E-17 ) ) ;
#48 = EDGE_CURVE ( 'NONE', #278, #149, #117, .T. ) ;
#49 = ORIENTED_EDGE ( 'NONE', *, *, #140, .F. ) ;
#50 = LINE ( 'NONE', #56, #406 ) ;
#51 = VECTOR ( 'NONE', #92, 1000.000000000000000 ) ;
#52 = ORIENTED_EDGE ( 'NONE', *, *, #434, .F. ) ;
#53 = ORIENTED_EDGE ( 'NONE', *, *, #97, .F. ) ;
#54 = CARTESIAN_POINT ( 'NONE',  ( -1.000000000000000000, 0.8000000000000000444, -9.799999999999998934 ) ) ;
#55 = SURFACE_SIDE_STYLE ('',( #26 ) ) ;
#56 = CARTESIAN_POINT ( 'NONE',  ( 0.000000000000000000, 0.000000000000000000, 1.800000000000000044 ) ) ;
#57 = EDGE_CURVE ( 'NONE', #31, #67, #216, .T. ) ;
#58 = CARTESIAN_POINT ( 'NONE',  ( 3.500000000000000000, 0.7999999999999988232, 9.799999999999998934 ) ) ;
#59 = VECTOR ( 'NONE', #261, 1000.000000000000000 ) ;
#60 = CARTESIAN_POINT ( 'NONE',  ( 3.500000000000000000, -0.8000000000000010436, -6.200000000000001066 ) ) ;
#61 = APPLICATION_CONTEXT ( 'automotive_design' ) ;
#62 = DIRECTION ( 'NONE',  ( -1.000000000000000000, -0.000000000000000000, -0.000000000000000000 ) ) ;
#63 = EDGE_CURVE ( 'NONE', #144, #149, #294, .T. ) ;
#64 = VERTEX_POINT ( 'NONE', #218 ) ;
#65 = CARTESIAN_POINT ( 'NONE',  ( -1.000000000000000000, 0.8000000000000000444, -9.799999999999998934 ) ) ;
#66 = VECTOR ( 'NONE', #37, 1000.000000000000000 ) ;
#67 = VERTEX_POINT ( 'NONE', #81 ) ;
#68 = CARTESIAN_POINT ( 'NONE',  ( -1.000000000000000000, 0.000000000000000000, 0.000000000000000000 ) ) ;
#69 = CARTESIAN_POINT ( 'NONE',  ( 3.500000000000000000, -0.8000000000000010436, 0.000000000000000000 ) ) ;
#70 = ORIENTED_EDGE ( 'NONE', *, *, #347, .T. ) ;
#71 = ADVANCED_FACE ( 'NONE', ( #398 ), #12, .T. ) ;
#72 = DIRECTION ( 'NONE',  ( 0.000000000000000000, 0.000000000000000000, -1.000000000000000000 ) ) ;
#73 = ORIENTED_EDGE ( 'NONE', *, *, #147, .F. ) ;
#74 = VECTOR ( 'NONE', #121, 1000.000000000000000 ) ;
#75 = DIRECTION ( 'NONE',  ( 0.000000000000000000, 0.000000000000000000, 1.000000000000000000 ) ) ;
#76 = ORIENTED_EDGE ( 'NONE', *, *, #413, .F. ) ;
#77 = CARTESIAN_POINT ( 'NONE',  ( 3.500000000000000000, 0.7999999999999998224, -6.200000000000001066 ) ) ;
#78 = CARTESIAN_POINT ( 'NONE',  ( -1.000000000000000000, 0.8000000000000000444, 9.799999999999998934 ) ) ;
#79 = EDGE_CURVE ( 'NONE', #149, #291, #362, .T. ) ;
#80 = FACE_OUTER_BOUND ( 'NONE', #214, .T. ) ;
#81 = CARTESIAN_POINT ( 'NONE',  ( 0.000000000000000000, 0.7999999999999990452, 6.200000000000001066 ) ) ;
#82 = AXIS2_PLACEMENT_3D ( 'NONE', #341, #328, #353 ) ;
#83 = DIRECTION ( 'NONE',  ( 0.000000000000000000, 0.000000000000000000, 1.000000000000000000 ) ) ;
#84 = VECTOR ( 'NONE', #148, 1000.000000000000000 ) ;
#85 = ORIENTED_EDGE ( 'NONE', *, *, #260, .F. ) ;
#86 = VERTEX_POINT ( 'NONE', #123 ) ;
#87 = CARTESIAN_POINT ( 'NONE',  ( -1.000000000000000000, 0.8000000000000000444, -9.799999999999998934 ) ) ;
#88 = DIRECTION ( 'NONE',  ( -1.000000000000000000, -0.000000000000000000, -0.000000000000000000 ) ) ;
#89 = ORIENTED_EDGE ( 'NONE', *, *, #419, .T. ) ;
#90 = FACE_OUTER_BOUND ( 'NONE', #160, .T. ) ;
#91 = ORIENTED_EDGE ( 'NONE', *, *, #236, .F. ) ;
#92 = DIRECTION ( 'NONE',  ( -0.000000000000000000, -0.000000000000000000, -1.000000000000000000 ) ) ;
#93 = AXIS2_PLACEMENT_3D ( 'NONE', #106, #103, #202 ) ;
#94 = ORIENTED_EDGE ( 'NONE', *, *, #413, .T. ) ;
#95 = SHAPE_DEFINITION_REPRESENTATION ( #414, #383 ) ;
#96 = DIRECTION ( 'NONE',  ( 0.000000000000000000, 0.000000000000000000, 1.000000000000000000 ) ) ;
#97 = EDGE_CURVE ( 'NONE', #177, #252, #360, .T. ) ;
#98 = ORIENTED_EDGE ( 'NONE', *, *, #313, .T. ) ;
#99 = PRODUCT ( '\X2\96f64ef6\X0\2', '\X2\96f64ef6\X0\2', '', ( #155 ) ) ;
#100 = LINE ( 'NONE', #235, #351 ) ;
#101 = LINE ( 'NONE', #139, #270 ) ;
#102 = VECTOR ( 'NONE', #230, 1000.000000000000000 ) ;
#103 = DIRECTION ( 'NONE',  ( 0.000000000000000000, 0.000000000000000000, -1.000000000000000000 ) ) ;
#104 = LINE ( 'NONE', #69, #277 ) ;
#105 = ORIENTED_EDGE ( 'NONE', *, *, #319, .F. ) ;
#106 = CARTESIAN_POINT ( 'NONE',  ( 3.500000000000000000, 0.000000000000000000, -6.200000000000001066 ) ) ;
#107 = ORIENTED_EDGE ( 'NONE', *, *, #147, .T. ) ;
#108 = CARTESIAN_POINT ( 'NONE',  ( 3.500000000000000000, -0.8000000000000010436, 9.799999999999998934 ) ) ;
#109 = VERTEX_POINT ( 'NONE', #126 ) ;
#110 = EDGE_CURVE ( 'NONE', #109, #252, #330, .T. ) ;
#111 = LINE ( 'NONE', #137, #306 ) ;
#112 = EDGE_LOOP ( 'NONE', ( #43, #105, #52, #98 ) ) ;
#113 = DIRECTION ( 'NONE',  ( 0.000000000000000000, -1.000000000000000000, 0.000000000000000000 ) ) ;
#114 = VECTOR ( 'NONE', #166, 1000.000000000000000 ) ;
#115 =( LENGTH_UNIT ( ) NAMED_UNIT ( * ) SI_UNIT ( .MILLI., .METRE. ) );
#116 = ADVANCED_FACE ( 'NONE', ( #153 ), #437, .F. ) ;
#117 = LINE ( 'NONE', #78, #74 ) ;
#118 = ORIENTED_EDGE ( 'NONE', *, *, #57, .T. ) ;
#119 = MANIFOLD_SOLID_BREP ( '\X2\51f853f0\X0\-\X2\62c94f38\X0\2', #180 ) ;
#120 = DIRECTION ( 'NONE',  ( 0.000000000000000000, -1.204669080539449837E-16, 1.000000000000000000 ) ) ;
#121 = DIRECTION ( 'NONE',  ( -0.000000000000000000, 1.000000000000000000, -0.000000000000000000 ) ) ;
#122 =( GEOMETRIC_REPRESENTATION_CONTEXT ( 3 ) GLOBAL_UNCERTAINTY_ASSIGNED_CONTEXT ( ( #297 ) ) GLOBAL_UNIT_ASSIGNED_CONTEXT ( ( #115, #251, #432 ) ) REPRESENTATION_CONTEXT ( 'NONE', 'WORKASPACE' ) );
#123 = CARTESIAN_POINT ( 'NONE',  ( 3.500000000000000000, -0.8000000000000010436, -9.799999999999998934 ) ) ;
#124 = EDGE_CURVE ( 'NONE', #291, #38, #408, .T. ) ;
#125 = EDGE_LOOP ( 'NONE', ( #171, #417, #424, #308 ) ) ;
#126 = CARTESIAN_POINT ( 'NONE',  ( 0.000000000000000000, -0.8000000000000010436, -1.799999999999999600 ) ) ;
#127 = ORIENTED_EDGE ( 'NONE', *, *, #241, .F. ) ;
#128 = ORIENTED_EDGE ( 'NONE', *, *, #184, .T. ) ;
#129 = AXIS2_PLACEMENT_3D ( 'NONE', #154, #324, #368 ) ;
#130 = LINE ( 'NONE', #19, #229 ) ;
#131 = AXIS2_PLACEMENT_3D ( 'NONE', #290, #75, #435 ) ;
#132 = ADVANCED_FACE ( 'NONE', ( #322 ), #302, .F. ) ;
#133 = EDGE_CURVE ( 'NONE', #265, #336, #130, .T. ) ;
#134 = VECTOR ( 'NONE', #96, 1000.000000000000000 ) ;
#135 = CARTESIAN_POINT ( 'NONE',  ( 0.000000000000000000, -0.8000000000000010436, 6.200000000000001066 ) ) ;
#136 = ORIENTED_EDGE ( 'NONE', *, *, #192, .F. ) ;
#137 = CARTESIAN_POINT ( 'NONE',  ( 0.000000000000000000, -0.000000000000000000, 6.200000000000001066 ) ) ;
#138 = ORIENTED_EDGE ( 'NONE', *, *, #184, .F. ) ;
#139 = CARTESIAN_POINT ( 'NONE',  ( 3.500000000000000000, -0.8000000000000010436, 6.200000000000001066 ) ) ;
#140 = EDGE_CURVE ( 'NONE', #250, #234, #50, .T. ) ;
#141 = AXIS2_PLACEMENT_3D ( 'NONE', #185, #156, #40 ) ;
#142 = ORIENTED_EDGE ( 'NONE', *, *, #376, .F. ) ;
#143 = CARTESIAN_POINT ( 'NONE',  ( 3.500000000000000000, -0.8000000000000010436, 0.000000000000000000 ) ) ;
#144 = VERTEX_POINT ( 'NONE', #58 ) ;
#145 = CARTESIAN_POINT ( 'NONE',  ( 3.500000000000000000, 0.000000000000000000, 9.799999999999998934 ) ) ;
#146 = ORIENTED_EDGE ( 'NONE', *, *, #48, .F. ) ;
#147 = EDGE_CURVE ( 'NONE', #223, #366, #441, .T. ) ;
#148 = DIRECTION ( 'NONE',  ( 0.000000000000000000, -1.000000000000000000, 0.000000000000000000 ) ) ;
#149 = VERTEX_POINT ( 'NONE', #303 ) ;
#150 = VECTOR ( 'NONE', #172, 1000.000000000000000 ) ;
#151 = PRESENTATION_LAYER_ASSIGNMENT (  '', '', ( #359 ) ) ;
#152 = DIRECTION ( 'NONE',  ( 0.000000000000000000, -1.204669080539449344E-16, 1.000000000000000000 ) ) ;
#153 = FACE_OUTER_BOUND ( 'NONE', #191, .T. ) ;
#154 = CARTESIAN_POINT ( 'NONE',  ( 3.500000000000000000, 0.8000000000000000444, 9.637352644315598941E-17 ) ) ;
#155 = PRODUCT_CONTEXT ( 'NONE', #233, 'mechanical' ) ;
#156 = DIRECTION ( 'NONE',  ( 1.000000000000000000, -0.000000000000000000, 0.000000000000000000 ) ) ;
#157 = EDGE_CURVE ( 'NONE', #402, #177, #267, .T. ) ;
#158 = ORIENTED_EDGE ( 'NONE', *, *, #124, .F. ) ;
#159 = ORIENTED_EDGE ( 'NONE', *, *, #331, .T. ) ;
#160 = EDGE_LOOP ( 'NONE', ( #118, #159, #1, #345, #204, #407, #333, #259, #158, #354, #386, #208 ) ) ;
#161 = AXIS2_PLACEMENT_3D ( 'NONE', #68, #315, #346 ) ;
#162 = CARTESIAN_POINT ( 'NONE',  ( 0.000000000000000000, -0.8000000000000010436, 1.800000000000000044 ) ) ;
#163 = FILL_AREA_STYLE ('',( #238 ) ) ;
#164 = CARTESIAN_POINT ( 'NONE',  ( 3.500000000000000000, 0.000000000000000000, 6.200000000000001066 ) ) ;
#165 = SURFACE_STYLE_USAGE ( .BOTH. , #55 ) ;
#166 = DIRECTION ( 'NONE',  ( 0.000000000000000000, 1.000000000000000000, 0.000000000000000000 ) ) ;
#167 = VECTOR ( 'NONE', #27, 1000.000000000000000 ) ;
#168 = LINE ( 'NONE', #348, #167 ) ;
#169 = EDGE_CURVE ( 'NONE', #420, #64, #410, .T. ) ;
#170 = LINE ( 'NONE', #207, #150 ) ;
#171 = ORIENTED_EDGE ( 'NONE', *, *, #260, .T. ) ;
#172 = DIRECTION ( 'NONE',  ( -0.000000000000000000, -0.000000000000000000, -1.000000000000000000 ) ) ;
#173 = ORIENTED_EDGE ( 'NONE', *, *, #227, .F. ) ;
#174 = DIRECTION ( 'NONE',  ( 0.000000000000000000, 0.000000000000000000, 1.000000000000000000 ) ) ;
#175 = ORIENTED_EDGE ( 'NONE', *, *, #438, .F. ) ;
#176 = LINE ( 'NONE', #320, #84 ) ;
#177 = VERTEX_POINT ( 'NONE', #190 ) ;
#178 = CARTESIAN_POINT ( 'NONE',  ( 0.000000000000000000, -0.8000000000000010436, -9.799999999999998934 ) ) ;
#179 = DIRECTION ( 'NONE',  ( 0.000000000000000000, 0.000000000000000000, 1.000000000000000000 ) ) ;
#180 = CLOSED_SHELL ( 'NONE', ( #116, #371, #404, #268, #287, #25, #41, #444, #305, #272, #132, #384, #355, #71 ) ) ;
#181 = DIRECTION ( 'NONE',  ( -1.000000000000000000, 0.000000000000000000, -0.000000000000000000 ) ) ;
#182 = ORIENTED_EDGE ( 'NONE', *, *, #241, .T. ) ;
#183 = LINE ( 'NONE', #178, #3 ) ;
#184 = EDGE_CURVE ( 'NONE', #336, #31, #226, .T. ) ;
#185 = CARTESIAN_POINT ( 'NONE',  ( 3.500000000000000000, 0.000000000000000000, 0.000000000000000000 ) ) ;
#186 = ORIENTED_EDGE ( 'NONE', *, *, #227, .T. ) ;
#187 = CARTESIAN_POINT ( 'NONE',  ( 3.500000000000000000, 0.000000000000000000, 0.000000000000000000 ) ) ;
#188 = DIRECTION ( 'NONE',  ( -0.000000000000000000, -0.000000000000000000, -1.000000000000000000 ) ) ;
#189 = ORIENTED_EDGE ( 'NONE', *, *, #319, .T. ) ;
#190 = CARTESIAN_POINT ( 'NONE',  ( 3.500000000000000000, 0.8000000000000000444, -1.800000000000000044 ) ) ;
#191 = EDGE_LOOP ( 'NONE', ( #127, #430, #422, #76 ) ) ;
#192 = EDGE_CURVE ( 'NONE', #228, #278, #263, .T. ) ;
#193 = APPLICATION_PROTOCOL_DEFINITION ( 'draft international standard', 'automotive_design', 1998, #61 ) ;
#194 = DIRECTION ( 'NONE',  ( -1.000000000000000000, -0.000000000000000000, -0.000000000000000000 ) ) ;
#195 = ORIENTED_EDGE ( 'NONE', *, *, #79, .T. ) ;
#196 = CARTESIAN_POINT ( 'NONE',  ( -1.000000000000000000, -0.8000000000000010436, -9.799999999999998934 ) ) ;
#197 = VECTOR ( 'NONE', #445, 1000.000000000000000 ) ;
#198 = DIRECTION ( 'NONE',  ( -1.000000000000000000, -0.000000000000000000, -0.000000000000000000 ) ) ;
#199 = LINE ( 'NONE', #403, #51 ) ;
#200 = EDGE_CURVE ( 'NONE', #252, #64, #199, .T. ) ;
#201 = PLANE ( 'NONE',  #82 ) ;
#202 = DIRECTION ( 'NONE',  ( -1.000000000000000000, 0.000000000000000000, -0.000000000000000000 ) ) ;
#203 = VECTOR ( 'NONE', #256, 1000.000000000000000 ) ;
#204 = ORIENTED_EDGE ( 'NONE', *, *, #97, .T. ) ;
#205 = EDGE_CURVE ( 'NONE', #228, #86, #237, .T. ) ;
#206 = DIRECTION ( 'NONE',  ( 1.000000000000000000, 0.000000000000000000, -0.000000000000000000 ) ) ;
#207 = CARTESIAN_POINT ( 'NONE',  ( 0.000000000000000000, 0.8000000000000000444, -9.799999999999998934 ) ) ;
#208 = ORIENTED_EDGE ( 'NONE', *, *, #419, .F. ) ;
#209 = CARTESIAN_POINT ( 'NONE',  ( 3.500000000000000000, 0.7999999999999998224, 1.800000000000000044 ) ) ;
#210 = MECHANICAL_DESIGN_GEOMETRIC_PRESENTATION_REPRESENTATION (  '', ( #359 ), #396 ) ;
#211 = ORIENTED_EDGE ( 'NONE', *, *, #63, .T. ) ;
#212 = PRODUCT_DEFINITION_FORMATION_WITH_SPECIFIED_SOURCE ( 'ä»', '', #99, .NOT_KNOWN. ) ;
#213 = FACE_OUTER_BOUND ( 'NONE', #409, .T. ) ;
#214 = EDGE_LOOP ( 'NONE', ( #295, #85, #46, #175 ) ) ;
#215 = DIRECTION ( 'NONE',  ( 0.000000000000000000, -1.000000000000000000, 0.000000000000000000 ) ) ;
#216 = LINE ( 'NONE', #254, #203 ) ;
#217 = DIRECTION ( 'NONE',  ( 1.000000000000000000, -0.000000000000000000, 0.000000000000000000 ) ) ;
#218 = CARTESIAN_POINT ( 'NONE',  ( 0.000000000000000000, 0.7999999999999998224, -6.200000000000001066 ) ) ;
#219 = VECTOR ( 'NONE', #373, 1000.000000000000000 ) ;
#220 = VECTOR ( 'NONE', #120, 1000.000000000000000 ) ;
#221 = CARTESIAN_POINT ( 'NONE',  ( 3.500000000000000000, -0.8000000000000010436, -1.800000000000000044 ) ) ;
#222 = DIRECTION ( 'NONE',  ( 1.000000000000000000, -0.000000000000000000, 0.000000000000000000 ) ) ;
#223 = VERTEX_POINT ( 'NONE', #60 ) ;
#224 = UNCERTAINTY_MEASURE_WITH_UNIT (LENGTH_MEASURE( 1.000000000000000082E-05 ), #23, 'distance_accuracy_value', 'NONE');
#225 = CARTESIAN_POINT ( 'NONE',  ( 0.000000000000000000, 0.000000000000000000, -1.800000000000000044 ) ) ;
#226 = LINE ( 'NONE', #164, #292 ) ;
#227 = EDGE_CURVE ( 'NONE', #316, #402, #377, .T. ) ;
#228 = VERTEX_POINT ( 'NONE', #196 ) ;
#229 = VECTOR ( 'NONE', #17, 1000.000000000000000 ) ;
#230 = DIRECTION ( 'NONE',  ( 1.000000000000000000, -0.000000000000000000, -0.000000000000000000 ) ) ;
#231 = EDGE_LOOP ( 'NONE', ( #395, #275, #282, #195 ) ) ;
#232 = CARTESIAN_POINT ( 'NONE',  ( 3.500000000000000000, -0.8000000000000010436, 0.000000000000000000 ) ) ;
#233 = APPLICATION_CONTEXT ( 'automotive_design' ) ;
#234 = VERTEX_POINT ( 'NONE', #162 ) ;
#235 = CARTESIAN_POINT ( 'NONE',  ( 3.500000000000000000, -0.8000000000000010436, -1.800000000000000044 ) ) ;
#236 = EDGE_CURVE ( 'NONE', #402, #109, #100, .T. ) ;
#237 = LINE ( 'NONE', #442, #102 ) ;
#238 = FILL_AREA_STYLE_COLOUR ( '', #257 ) ;
#239 = PLANE ( 'NONE',  #369 ) ;
#240 = LINE ( 'NONE', #416, #114 ) ;
#241 = EDGE_CURVE ( 'NONE', #64, #366, #443, .T. ) ;
#242 = ORIENTED_EDGE ( 'NONE', *, *, #169, .T. ) ;
#243 = FACE_OUTER_BOUND ( 'NONE', #310, .T. ) ;
#244 = CARTESIAN_POINT ( 'NONE',  ( 0.000000000000000000, 0.8000000000000000444, -1.799999999999999600 ) ) ;
#245 = EDGE_LOOP ( 'NONE', ( #8, #53, #13, #372 ) ) ;
#246 = DIRECTION ( 'NONE',  ( -1.000000000000000000, -0.000000000000000000, -0.000000000000000000 ) ) ;
#247 = EDGE_LOOP ( 'NONE', ( #186, #349, #262, #20 ) ) ;
#248 = EDGE_CURVE ( 'NONE', #336, #280, #101, .T. ) ;
#249 = AXIS2_PLACEMENT_3D ( 'NONE', #340, #339, #335 ) ;
#250 = VERTEX_POINT ( 'NONE', #382 ) ;
#251 =( NAMED_UNIT ( * ) PLANE_ANGLE_UNIT ( ) SI_UNIT ( $, .RADIAN. ) );
#252 = VERTEX_POINT ( 'NONE', #244 ) ;
#253 = PLANE ( 'NONE',  #9 ) ;
#254 = CARTESIAN_POINT ( 'NONE',  ( 3.500000000000000000, 0.7999999999999990452, 6.200000000000001066 ) ) ;
#255 = EDGE_CURVE ( 'NONE', #280, #67, #111, .T. ) ;
#256 = DIRECTION ( 'NONE',  ( -1.000000000000000000, -0.000000000000000000, -0.000000000000000000 ) ) ;
#257 = COLOUR_RGB ( '',0.7921568627450980005, 0.8196078431372548767, 0.9333333333333333481 ) ;
#258 = LINE ( 'NONE', #286, #264 ) ;
#259 = ORIENTED_EDGE ( 'NONE', *, *, #399, .F. ) ;
#260 = EDGE_CURVE ( 'NONE', #86, #38, #240, .T. ) ;
#261 = DIRECTION ( 'NONE',  ( -1.000000000000000000, -0.000000000000000000, -0.000000000000000000 ) ) ;
#262 = ORIENTED_EDGE ( 'NONE', *, *, #448, .T. ) ;
#263 = LINE ( 'NONE', #298, #134 ) ;
#264 = VECTOR ( 'NONE', #113, 1000.000000000000000 ) ;
#265 = VERTEX_POINT ( 'NONE', #108 ) ;
#266 = EDGE_LOOP ( 'NONE', ( #363, #15, #138, #326 ) ) ;
#267 = LINE ( 'NONE', #374, #28 ) ;
#268 = ADVANCED_FACE ( 'NONE', ( #307 ), #239, .F. ) ;
#269 = CARTESIAN_POINT ( 'NONE',  ( 0.000000000000000000, -0.000000000000000000, -6.200000000000001066 ) ) ;
#270 = VECTOR ( 'NONE', #62, 1000.000000000000000 ) ;
#271 = CARTESIAN_POINT ( 'NONE',  ( 3.500000000000000000, 0.7999999999999998224, -6.200000000000001066 ) ) ;
#272 = ADVANCED_FACE ( 'NONE', ( #350 ), #311, .F. ) ;
#273 = DIRECTION ( 'NONE',  ( 1.000000000000000000, 0.000000000000000000, -0.000000000000000000 ) ) ;
#274 = PLANE ( 'NONE',  #161 ) ;
#275 = ORIENTED_EDGE ( 'NONE', *, *, #192, .T. ) ;
#276 = FACE_OUTER_BOUND ( 'NONE', #266, .T. ) ;
#277 = VECTOR ( 'NONE', #72, 1000.000000000000000 ) ;
#278 = VERTEX_POINT ( 'NONE', #421 ) ;
#279 = LINE ( 'NONE', #209, #428 ) ;
#280 = VERTEX_POINT ( 'NONE', #135 ) ;
#281 = PLANE ( 'NONE',  #93 ) ;
#282 = ORIENTED_EDGE ( 'NONE', *, *, #48, .T. ) ;
#283 = DIRECTION ( 'NONE',  ( 0.000000000000000000, 0.000000000000000000, -1.000000000000000000 ) ) ;
#284 = AXIS2_PLACEMENT_3D ( 'NONE', #357, #288, #179 ) ;
#285 = DIRECTION ( 'NONE',  ( 0.000000000000000000, 0.000000000000000000, -1.000000000000000000 ) ) ;
#286 = CARTESIAN_POINT ( 'NONE',  ( 3.500000000000000000, 0.000000000000000000, 1.800000000000000044 ) ) ;
#287 = ADVANCED_FACE ( 'NONE', ( #276 ), #35, .F. ) ;
#288 = DIRECTION ( 'NONE',  ( -1.000000000000000000, 0.000000000000000000, 0.000000000000000000 ) ) ;
#289 = PLANE ( 'NONE',  #129 ) ;
#290 = CARTESIAN_POINT ( 'NONE',  ( 0.000000000000000000, 0.000000000000000000, 0.000000000000000000 ) ) ;
#291 = VERTEX_POINT ( 'NONE', #65 ) ;
#292 = VECTOR ( 'NONE', #367, 1000.000000000000000 ) ;
#293 = EDGE_CURVE ( 'NONE', #234, #280, #168, .T. ) ;
#294 = LINE ( 'NONE', #45, #59 ) ;
#295 = ORIENTED_EDGE ( 'NONE', *, *, #124, .T. ) ;
#296 = DIRECTION ( 'NONE',  ( 0.000000000000000000, -1.000000000000000000, 0.000000000000000000 ) ) ;
#297 = UNCERTAINTY_MEASURE_WITH_UNIT (LENGTH_MEASURE( 1.000000000000000082E-05 ), #115, 'distance_accuracy_value', 'NONE');
#298 = CARTESIAN_POINT ( 'NONE',  ( -1.000000000000000000, -0.8000000000000010436, -9.799999999999998934 ) ) ;
#299 = AXIS2_PLACEMENT_3D ( 'NONE', #30, #33, #206 ) ;
#300 = EDGE_LOOP ( 'NONE', ( #182, #73, #142, #242 ) ) ;
#301 = DIRECTION ( 'NONE',  ( 0.000000000000000000, 1.000000000000000000, 0.000000000000000000 ) ) ;
#302 = PLANE ( 'NONE',  #249 ) ;
#303 = CARTESIAN_POINT ( 'NONE',  ( -1.000000000000000000, 0.8000000000000000444, 9.799999999999998934 ) ) ;
#304 = PRESENTATION_STYLE_ASSIGNMENT (( #165 ) ) ;
#305 = ADVANCED_FACE ( 'NONE', ( #385 ), #274, .T. ) ;
#306 = VECTOR ( 'NONE', #379, 1000.000000000000000 ) ;
#307 = FACE_OUTER_BOUND ( 'NONE', #318, .T. ) ;
#308 = ORIENTED_EDGE ( 'NONE', *, *, #337, .T. ) ;
#309 = CARTESIAN_POINT ( 'NONE',  ( 3.500000000000000000, -0.8000000000000010436, 1.800000000000000044 ) ) ;
#310 = EDGE_LOOP ( 'NONE', ( #49, #380, #36, #34 ) ) ;
#311 = PLANE ( 'NONE',  #299 ) ;
#312 = DIRECTION ( 'NONE',  ( 0.000000000000000000, -1.000000000000000000, 0.000000000000000000 ) ) ;
#313 = EDGE_CURVE ( 'NONE', #342, #250, #279, .T. ) ;
#314 = ORIENTED_EDGE ( 'NONE', *, *, #347, .F. ) ;
#315 = DIRECTION ( 'NONE',  ( -1.000000000000000000, 0.000000000000000000, 0.000000000000000000 ) ) ;
#316 = VERTEX_POINT ( 'NONE', #309 ) ;
#317 = FACE_OUTER_BOUND ( 'NONE', #247, .T. ) ;
#318 = EDGE_LOOP ( 'NONE', ( #431, #136, #352, #391, #107, #94, #91, #173, #189, #327, #450, #447 ) ) ;
#319 = EDGE_CURVE ( 'NONE', #316, #234, #423, .T. ) ;
#320 = CARTESIAN_POINT ( 'NONE',  ( -1.000000000000000000, 0.8000000000000000444, -9.799999999999998934 ) ) ;
#321 = VECTOR ( 'NONE', #365, 1000.000000000000000 ) ;
#322 = FACE_OUTER_BOUND ( 'NONE', #112, .T. ) ;
#323 = DIRECTION ( 'NONE',  ( 0.000000000000000000, -1.204669080539449837E-16, 1.000000000000000000 ) ) ;
#324 = DIRECTION ( 'NONE',  ( 0.000000000000000000, -1.000000000000000000, -1.204669080539449837E-16 ) ) ;
#325 = PLANE ( 'NONE',  #429 ) ;
#326 = ORIENTED_EDGE ( 'NONE', *, *, #248, .T. ) ;
#327 = ORIENTED_EDGE ( 'NONE', *, *, #293, .T. ) ;
#328 = DIRECTION ( 'NONE',  ( -1.000000000000000000, 0.000000000000000000, 0.000000000000000000 ) ) ;
#329 = PRODUCT_DEFINITION_CONTEXT ( 'detailed design', #61, 'design' ) ;
#330 = LINE ( 'NONE', #225, #321 ) ;
#331 = EDGE_CURVE ( 'NONE', #67, #250, #170, .T. ) ;
#332 = VECTOR ( 'NONE', #415, 1000.000000000000000 ) ;
#333 = ORIENTED_EDGE ( 'NONE', *, *, #169, .F. ) ;
#334 = PLANE ( 'NONE',  #2 ) ;
#335 = DIRECTION ( 'NONE',  ( -1.000000000000000000, 0.000000000000000000, -0.000000000000000000 ) ) ;
#336 = VERTEX_POINT ( 'NONE', #449 ) ;
#337 = EDGE_CURVE ( 'NONE', #223, #86, #104, .T. ) ;
#338 = AXIS2_PLACEMENT_3D ( 'NONE', #344, #174, #273 ) ;
#339 = DIRECTION ( 'NONE',  ( 0.000000000000000000, 0.000000000000000000, -1.000000000000000000 ) ) ;
#340 = CARTESIAN_POINT ( 'NONE',  ( 3.500000000000000000, 0.000000000000000000, 1.800000000000000044 ) ) ;
#341 = CARTESIAN_POINT ( 'NONE',  ( 0.000000000000000000, 0.000000000000000000, 0.000000000000000000 ) ) ;
#342 = VERTEX_POINT ( 'NONE', #6 ) ;
#343 = VECTOR ( 'NONE', #88, 1000.000000000000000 ) ;
#344 = CARTESIAN_POINT ( 'NONE',  ( 3.500000000000000000, 0.000000000000000000, 6.200000000000001066 ) ) ;
#345 = ORIENTED_EDGE ( 'NONE', *, *, #448, .F. ) ;
#346 = DIRECTION ( 'NONE',  ( 0.000000000000000000, 0.000000000000000000, 1.000000000000000000 ) ) ;
#347 = EDGE_CURVE ( 'NONE', #144, #265, #451, .T. ) ;
#348 = CARTESIAN_POINT ( 'NONE',  ( 0.000000000000000000, -0.8000000000000010436, -9.799999999999998934 ) ) ;
#349 = ORIENTED_EDGE ( 'NONE', *, *, #157, .T. ) ;
#350 = FACE_OUTER_BOUND ( 'NONE', #245, .T. ) ;
#351 = VECTOR ( 'NONE', #198, 1000.000000000000000 ) ;
#352 = ORIENTED_EDGE ( 'NONE', *, *, #205, .T. ) ;
#353 = DIRECTION ( 'NONE',  ( 0.000000000000000000, 0.000000000000000000, 1.000000000000000000 ) ) ;
#354 = ORIENTED_EDGE ( 'NONE', *, *, #79, .F. ) ;
#355 = ADVANCED_FACE ( 'NONE', ( #387 ), #281, .F. ) ;
#356 = DIRECTION ( 'NONE',  ( 0.000000000000000000, 0.000000000000000000, -1.000000000000000000 ) ) ;
#357 = CARTESIAN_POINT ( 'NONE',  ( 0.000000000000000000, 0.000000000000000000, 0.000000000000000000 ) ) ;
#358 = CARTESIAN_POINT ( 'NONE',  ( 3.500000000000000000, 0.7999999999999990452, 9.637352644315586615E-17 ) ) ;
#359 = STYLED_ITEM ( 'NONE', ( #304 ), #119 ) ;
#360 = LINE ( 'NONE', #401, #343 ) ;
#361 = LINE ( 'NONE', #10, #66 ) ;
#362 = LINE ( 'NONE', #436, #375 ) ;
#363 = ORIENTED_EDGE ( 'NONE', *, *, #255, .T. ) ;
#364 = CARTESIAN_POINT ( 'NONE',  ( 3.500000000000000000, 0.000000000000000000, -6.200000000000001066 ) ) ;
#365 = DIRECTION ( 'NONE',  ( 0.000000000000000000, 1.000000000000000000, 0.000000000000000000 ) ) ;
#366 = VERTEX_POINT ( 'NONE', #378 ) ;
#367 = DIRECTION ( 'NONE',  ( 0.000000000000000000, 1.000000000000000000, 0.000000000000000000 ) ) ;
#368 = DIRECTION ( 'NONE',  ( 0.000000000000000000, 1.204669080539449837E-16, -1.000000000000000000 ) ) ;
#369 = AXIS2_PLACEMENT_3D ( 'NONE', #143, #446, #4 ) ;
#370 = AXIS2_PLACEMENT_3D ( 'NONE', #7, #356, #181 ) ;
#371 = ADVANCED_FACE ( 'NONE', ( #243 ), #201, .F. ) ;
#372 = ORIENTED_EDGE ( 'NONE', *, *, #236, .T. ) ;
#373 = DIRECTION ( 'NONE',  ( 0.000000000000000000, 0.000000000000000000, -1.000000000000000000 ) ) ;
#374 = CARTESIAN_POINT ( 'NONE',  ( 3.500000000000000000, 0.000000000000000000, -1.800000000000000044 ) ) ;
#375 = VECTOR ( 'NONE', #188, 1000.000000000000000 ) ;
#376 = EDGE_CURVE ( 'NONE', #420, #223, #44, .T. ) ;
#377 = LINE ( 'NONE', #232, #219 ) ;
#378 = CARTESIAN_POINT ( 'NONE',  ( 0.000000000000000000, -0.8000000000000010436, -6.200000000000001066 ) ) ;
#379 = DIRECTION ( 'NONE',  ( 0.000000000000000000, 1.000000000000000000, 0.000000000000000000 ) ) ;
#380 = ORIENTED_EDGE ( 'NONE', *, *, #331, .F. ) ;
#381 = VECTOR ( 'NONE', #215, 1000.000000000000000 ) ;
#382 = CARTESIAN_POINT ( 'NONE',  ( 0.000000000000000000, 0.8000000000000000444, 1.799999999999999600 ) ) ;
#383 = ADVANCED_BREP_SHAPE_REPRESENTATION ( '\X2\96f64ef6\X0\2', ( #119, #131 ), #122 ) ;
#384 = ADVANCED_FACE ( 'NONE', ( #317 ), #253, .T. ) ;
#385 = FACE_OUTER_BOUND ( 'NONE', #231, .T. ) ;
#386 = ORIENTED_EDGE ( 'NONE', *, *, #63, .F. ) ;
#387 = FACE_OUTER_BOUND ( 'NONE', #300, .T. ) ;
#388 = ORIENTED_EDGE ( 'NONE', *, *, #133, .T. ) ;
#389 = DIRECTION ( 'NONE',  ( 0.000000000000000000, 0.000000000000000000, 1.000000000000000000 ) ) ;
#390 = EDGE_CURVE ( 'NONE', #265, #278, #361, .T. ) ;
#391 = ORIENTED_EDGE ( 'NONE', *, *, #337, .F. ) ;
#392 = APPLICATION_PROTOCOL_DEFINITION ( 'draft international standard', 'automotive_design', 1998, #233 ) ;
#393 = FACE_OUTER_BOUND ( 'NONE', #440, .T. ) ;
#394 = LINE ( 'NONE', #400, #11 ) ;
#395 = ORIENTED_EDGE ( 'NONE', *, *, #438, .T. ) ;
#396 =( GEOMETRIC_REPRESENTATION_CONTEXT ( 3 ) GLOBAL_UNCERTAINTY_ASSIGNED_CONTEXT ( ( #224 ) ) GLOBAL_UNIT_ASSIGNED_CONTEXT ( ( #23, #21, #24 ) ) REPRESENTATION_CONTEXT ( 'NONE', 'WORKASPACE' ) );
#397 = VECTOR ( 'NONE', #152, 1000.000000000000000 ) ;
#398 = FACE_OUTER_BOUND ( 'NONE', #125, .T. ) ;
#399 = EDGE_CURVE ( 'NONE', #38, #420, #42, .T. ) ;
#400 = CARTESIAN_POINT ( 'NONE',  ( 3.500000000000000000, 0.8000000000000000444, 9.637352644315598941E-17 ) ) ;
#401 = CARTESIAN_POINT ( 'NONE',  ( 3.500000000000000000, 0.8000000000000000444, -1.800000000000000044 ) ) ;
#402 = VERTEX_POINT ( 'NONE', #221 ) ;
#403 = CARTESIAN_POINT ( 'NONE',  ( 0.000000000000000000, 0.8000000000000000444, -9.799999999999998934 ) ) ;
#404 = ADVANCED_FACE ( 'NONE', ( #213 ), #426, .F. ) ;
#405 = VECTOR ( 'NONE', #312, 1000.000000000000000 ) ;
#406 = VECTOR ( 'NONE', #296, 1000.000000000000000 ) ;
#407 = ORIENTED_EDGE ( 'NONE', *, *, #200, .T. ) ;
#408 = LINE ( 'NONE', #54, #197 ) ;
#409 = EDGE_LOOP ( 'NONE', ( #211, #146, #5, #314 ) ) ;
#410 = LINE ( 'NONE', #271, #332 ) ;
#411 = DIRECTION ( 'NONE',  ( 0.000000000000000000, -1.000000000000000000, 0.000000000000000000 ) ) ;
#412 = VECTOR ( 'NONE', #411, 1000.000000000000000 ) ;
#413 = EDGE_CURVE ( 'NONE', #366, #109, #183, .T. ) ;
#414 = PRODUCT_DEFINITION_SHAPE ( 'NONE', 'NONE',  #29 ) ;
#415 = DIRECTION ( 'NONE',  ( -1.000000000000000000, -0.000000000000000000, -0.000000000000000000 ) ) ;
#416 = CARTESIAN_POINT ( 'NONE',  ( 3.500000000000000000, 0.000000000000000000, -9.799999999999998934 ) ) ;
#417 = ORIENTED_EDGE ( 'NONE', *, *, #399, .T. ) ;
#418 = CARTESIAN_POINT ( 'NONE',  ( 3.500000000000000000, -0.8000000000000010436, 1.800000000000000044 ) ) ;
#419 = EDGE_CURVE ( 'NONE', #31, #144, #394, .T. ) ;
#420 = VERTEX_POINT ( 'NONE', #77 ) ;
#421 = CARTESIAN_POINT ( 'NONE',  ( -1.000000000000000000, -0.8000000000000010436, 9.799999999999998934 ) ) ;
#422 = ORIENTED_EDGE ( 'NONE', *, *, #110, .F. ) ;
#423 = LINE ( 'NONE', #418, #22 ) ;
#424 = ORIENTED_EDGE ( 'NONE', *, *, #376, .T. ) ;
#425 = PRODUCT_RELATED_PRODUCT_CATEGORY ( 'part', '', ( #99 ) ) ;
#426 = PLANE ( 'NONE',  #370 ) ;
#427 = LINE ( 'NONE', #47, #397 ) ;
#428 = VECTOR ( 'NONE', #32, 1000.000000000000000 ) ;
#429 = AXIS2_PLACEMENT_3D ( 'NONE', #87, #83, #39 ) ;
#430 = ORIENTED_EDGE ( 'NONE', *, *, #200, .F. ) ;
#431 = ORIENTED_EDGE ( 'NONE', *, *, #390, .T. ) ;
#432 =( NAMED_UNIT ( * ) SI_UNIT ( $, .STERADIAN. ) SOLID_ANGLE_UNIT ( ) );
#433 = CARTESIAN_POINT ( 'NONE',  ( 3.500000000000000000, 0.8000000000000000444, -9.799999999999998934 ) ) ;
#434 = EDGE_CURVE ( 'NONE', #342, #316, #258, .T. ) ;
#435 = DIRECTION ( 'NONE',  ( 1.000000000000000000, 0.000000000000000000, 0.000000000000000000 ) ) ;
#436 = CARTESIAN_POINT ( 'NONE',  ( -1.000000000000000000, 0.8000000000000000444, -9.799999999999998934 ) ) ;
#437 = PLANE ( 'NONE',  #284 ) ;
#438 = EDGE_CURVE ( 'NONE', #291, #228, #176, .T. ) ;
#439 = CARTESIAN_POINT ( 'NONE',  ( 3.500000000000000000, -0.8000000000000010436, -6.200000000000001066 ) ) ;
#440 = EDGE_LOOP ( 'NONE', ( #70, #388, #128, #89 ) ) ;
#441 = LINE ( 'NONE', #439, #16 ) ;
#442 = CARTESIAN_POINT ( 'NONE',  ( -1.000000000000000000, -0.8000000000000010436, -9.799999999999998934 ) ) ;
#443 = LINE ( 'NONE', #269, #412 ) ;
#444 = ADVANCED_FACE ( 'NONE', ( #80 ), #325, .F. ) ;
#445 = DIRECTION ( 'NONE',  ( 1.000000000000000000, -0.000000000000000000, -0.000000000000000000 ) ) ;
#446 = DIRECTION ( 'NONE',  ( -0.000000000000000000, 1.000000000000000000, 0.000000000000000000 ) ) ;
#447 = ORIENTED_EDGE ( 'NONE', *, *, #133, .F. ) ;
#448 = EDGE_CURVE ( 'NONE', #177, #342, #427, .T. ) ;
#449 = CARTESIAN_POINT ( 'NONE',  ( 3.500000000000000000, -0.8000000000000010436, 6.200000000000001066 ) ) ;
#450 = ORIENTED_EDGE ( 'NONE', *, *, #248, .F. ) ;
#451 = LINE ( 'NONE', #145, #405 ) ;
ENDSEC;
END-ISO-10303-21;
